<?xml version="1.0" encoding="utf-8"?>
<!-- Generator: Adobe Illustrator 24.0.1, SVG Export Plug-In . SVG Version: 6.00 Build 0)  -->
<svg version="1.1" id="Layer_1" xmlns="http://www.w3.org/2000/svg" xmlns:xlink="http://www.w3.org/1999/xlink" x="0px" y="0px"
	 viewBox="0 0 300 300" style="enable-background:new 0 0 300 300;" xml:space="preserve">
<style type="text/css">
	.st0{fill:none;stroke:#000000;stroke-width:17;stroke-linecap:round;stroke-miterlimit:10;}
</style>
<g>
	<g>
		<path d="M169.5,67c35.01,0,63.5,28.49,63.5,63.5S204.51,194,169.5,194c-16.7,0-32.46-6.43-44.39-18.12
			C112.79,163.84,106,147.73,106,130.5C106,95.49,134.49,67,169.5,67 M169.5,50C125.04,50,89,86.04,89,130.5
			c0,22.55,9.28,42.94,24.23,57.54c14.5,14.21,34.37,22.96,56.27,22.96c44.46,0,80.5-36.04,80.5-80.5S213.96,50,169.5,50L169.5,50z"
			/>
	</g>
	<line class="st0" x1="50" y1="250" x2="117.5" y2="182.5"/>
</g>
</svg>
