<svg xmlns="http://www.w3.org/2000/svg" xmlns:xlink="http://www.w3.org/1999/xlink" id="Layer_1" x="0" y="0" version="1.1" viewBox="0 0 300 300" xml:space="preserve" style="enable-background:new 0 0 300 300"><style type="text/css">.st0{fill:none;stroke:#000;stroke-width:17;stroke-linecap:round;stroke-miterlimit:10}</style><g><g><path d="M169.5,67c35.01,0,63.5,28.49,63.5,63.5S204.51,194,169.5,194c-16.7,0-32.46-6.43-44.39-18.12 C112.79,163.84,106,147.73,106,130.5C106,95.49,134.49,67,169.5,67 M169.5,50C125.04,50,89,86.04,89,130.5 c0,22.55,9.28,42.94,24.23,57.54c14.5,14.21,34.37,22.96,56.27,22.96c44.46,0,80.5-36.04,80.5-80.5S213.96,50,169.5,50L169.5,50z"/></g><line x1="50" x2="117.5" y1="250" y2="182.5" class="st0"/></g></svg>